<svg id="Layer_1" data-name="Layer 1" xmlns="http://www.w3.org/2000/svg" viewBox="0 0 119.09 63.22"><defs><style>.cls-1{fill:#f9d373;}.cls-2{fill:#aea07b;}</style></defs><path class="cls-1" d="M18.68,6.2v38c0,4.63,1.55,7.44,2.91,9a12.14,12.14,0,0,0,9.61,4.17,12.14,12.14,0,0,0,9.61-4.17c1.36-1.54,2.91-4.35,2.91-9V6.2H55.51v37c0,5.72-.91,11.52-4.54,16.15-4.35,5.71-12,8.71-19.77,8.71s-15.42-3-19.77-8.71C7.8,54.72,6.89,48.92,6.89,43.2V6.2Z" transform="translate(-6.89 -4.84)"/><path class="cls-2" d="M126,36.49c0,18.41-13.24,31.57-32.29,31.57S61.4,54.9,61.4,36.49,74.65,4.84,93.69,4.84,126,18.08,126,36.49Zm-12.15,0c0-12.24-8.35-21-20.14-21s-20.13,8.71-20.13,21S81.9,57.35,93.69,57.35,113.83,48.74,113.83,36.49Z" transform="translate(-6.89 -4.84)"/></svg>