<svg id="Layer_1" data-name="Layer 1" xmlns="http://www.w3.org/2000/svg" width="339.67" height="63.22" viewBox="0 0 339.67 63.22"><defs><style>.cls-1{fill:#f9d373;}.cls-2{fill:#aea07b;}</style></defs><path class="cls-1" d="M18.68,15.1v38c0,4.62,1.55,7.43,2.91,9a12.17,12.17,0,0,0,9.61,4.17,12.17,12.17,0,0,0,9.61-4.17c1.36-1.55,2.91-4.36,2.91-9v-38H55.51v37c0,5.71-.91,11.52-4.54,16.14C46.62,74,39,77,31.2,77s-15.42-3-19.77-8.71C7.8,63.63,6.89,57.82,6.89,52.11v-37Z" transform="translate(-6.89 -13.74)"/><path class="cls-1" d="M89.34,15.1c6.8,0,11.52.73,16,4.63a19.26,19.26,0,0,1,6.17,14.6c0,2.36-.36,8.89-5,13.52-3.36,3.35-8.34,5.35-15.33,5.35H83.53V75.6H71.74V15.1ZM83.53,43h4.81c2.27,0,5.17,0,7.71-1.91a9,9,0,0,0,3.27-7.07A8.33,8.33,0,0,0,96,27.17c-2.45-1.73-5.53-1.91-8.34-1.91H83.53Z" transform="translate(-6.89 -13.74)"/><path class="cls-2" d="M122.63,75.6V15.1h8.16l36.82,40.36V15.1H179.4V75.6h-8.16L134.42,35.15V75.6Z" transform="translate(-6.89 -13.74)"/><path class="cls-2" d="M229.2,25.26H207.43V38.78h20.86V48.93H207.43V65.44H229.2V75.6H195.64V15.1H229.2Z" transform="translate(-6.89 -13.74)"/><path class="cls-2" d="M264,25.26V75.6H252.24V25.26H238.63V15.1h39V25.26Z" transform="translate(-6.89 -13.74)"/><path class="cls-2" d="M346.57,45.4c0,18.41-13.25,31.56-32.29,31.56S282,63.81,282,45.4s13.24-31.66,32.29-31.66S346.57,27,346.57,45.4Zm-12.16,0c0-12.25-8.34-20.95-20.13-20.95s-20.14,8.7-20.14,21,8.35,20.86,20.14,20.86S334.41,57.64,334.41,45.4Z" transform="translate(-6.89 -13.74)"/></svg>